<svg width="80" height="80" viewBox="0 0 80 80" fill="none" xmlns="http://www.w3.org/2000/svg">
<circle cx="40" cy="40" r="40" fill="#313E3C"/>
<path d="M57.597 54.4877L57.583 54.5037C55.4259 56.9741 53.0156 58.2399 51.3736 58.8667C46.7898 60.6167 42.1609 60.5459 37.616 58.6563C32.9828 56.7304 28.8372 52.7423 26.7967 48.2482C25.8875 46.2463 25.3999 44.1398 25.3473 41.9873C25.3362 41.541 25.3202 41.0238 25.3173 40.9262L25.3161 40.8312L25.3155 40.7881L25.3153 40.7753L25.3147 40.7294C25.3141 40.6881 25.3133 40.6467 25.3133 40.6052V40.589C25.3133 40.4763 25.3151 40.3641 25.3176 40.2524C25.3878 37.1718 26.5874 34.2146 28.6955 31.9252C29.6416 30.8977 30.7503 30.0968 31.99 29.5447C33.2289 28.9931 34.5876 28.6981 36.0321 28.666C35.5349 29.0681 35.0639 29.5096 34.6216 29.9902C32.0923 32.7368 30.6995 36.5105 30.6995 40.6161C30.6995 44.7214 32.0923 48.4952 34.6216 51.2418C36.0768 52.8224 37.818 53.9765 39.7963 54.6718C41.2011 55.1656 42.714 55.4158 44.2926 55.4158C46.9438 55.4158 50.7651 54.6938 53.916 51.2538C54.99 50.0817 55.8574 48.7244 56.5038 47.2098H61.6956C60.838 49.9504 59.4394 52.4402 57.597 54.4877ZM23.0459 54.4826C19.6826 50.8722 17.8305 45.9408 17.8305 40.5975C17.8305 35.2394 19.6879 30.2712 23.0609 26.6086C26.4712 22.9049 31.1716 20.8654 36.2964 20.8654C37.5738 20.8654 38.8385 20.9916 40.0552 21.241H40.0554C46.539 22.5695 51.636 27.3882 53.7001 34.0036H48.5086C47.8619 32.489 46.994 31.1322 45.9199 29.9595C44.479 28.3866 42.7519 27.2371 40.7868 26.5433C39.3853 26.0484 37.8744 25.7976 36.2964 25.7976C34.3581 25.7976 32.5258 26.1759 30.8503 26.922C29.2566 27.6318 27.8348 28.6577 26.6252 29.9716C26.3261 30.2965 26.0428 30.6327 25.774 30.9786C24.067 32.8841 22.9759 35.3932 22.6171 38.5183C22.5444 39.0694 22.5008 39.6261 22.4879 40.1864L22.4975 40.1866L22.4879 40.1864C22.4848 40.323 22.4831 40.4599 22.4831 40.5975L22.4832 40.6161H22.4831C22.4831 40.6608 22.4836 40.7055 22.4844 40.75V40.7571C22.4846 40.761 22.4846 40.7646 22.4846 40.7685L22.485 40.8037L22.4852 40.8188L22.4854 40.8243V40.8277L22.486 40.8769C22.486 41.221 22.4959 41.5651 22.5139 41.909C22.5153 41.9592 22.5167 42.0091 22.5178 42.0581C22.5799 44.602 23.1543 47.0874 24.2248 49.445C26.1555 53.6969 29.7321 57.5477 33.9025 59.9878C29.7018 59.4659 25.9098 57.5568 23.0459 54.4826ZM55.9891 25.041C58.7432 27.3735 60.6538 30.4474 61.5762 34.0036H56.6506C55.1465 28.4574 51.8083 23.9247 47.3308 21.1178C50.5752 21.6256 53.5272 22.9561 55.9891 25.041ZM45.9199 51.2354C46.994 50.063 47.8619 48.706 48.5086 47.1914H53.3596C52.9308 47.9626 52.4235 48.6698 51.8405 49.3058C49.476 51.8874 46.6044 52.5054 44.5313 52.5479C45.0188 52.1501 45.4825 51.7128 45.9199 51.2354ZM64.9865 44.3261H57.2962H46.5466L46.2118 45.2785C45.6726 46.8123 44.8761 48.161 43.8445 49.2872C42.8196 50.4057 41.617 51.2451 40.2646 51.7892C38.9151 51.238 37.7148 50.3989 36.692 49.2882C34.6531 47.0739 33.53 43.9941 33.53 40.6161C33.53 37.2381 34.6531 34.1582 36.692 31.9438C37.6381 30.9165 38.7465 30.1154 39.9864 29.5632C40.0933 29.5156 40.204 29.4701 40.315 29.4256C41.6501 29.974 42.8357 30.8067 43.8445 31.9076C44.8761 33.0342 45.6726 34.3829 46.2118 35.9165L46.5466 36.8688H55.5347H55.5454H57.313H65C65 31.24 61.4533 25.9329 57.8053 22.8434C54.0781 19.687 49.4056 18.0186 44.2926 18.0186C42.9623 18.0186 41.6342 18.1412 40.3402 18.3799C39.0247 18.1289 37.666 18 36.2964 18C30.3779 18 24.9422 20.3634 20.9903 24.655C17.1276 28.8497 15 34.5116 15 40.5975C15 46.6747 17.1262 52.3039 20.9866 56.448C24.9215 60.6724 30.3519 62.999 36.2774 62.999C37.626 62.999 39.6139 62.9984 41.1025 62.6678C42.3141 62.8889 43.5284 63 44.7441 63C47.2876 63 49.8358 62.5159 52.3723 61.5477C54.3106 60.8077 57.1518 59.317 59.6895 56.4172C59.6905 56.4162 59.6912 56.4152 59.6922 56.4142C59.6959 56.4099 59.6998 56.4055 59.7036 56.4014V56.4012C62.2533 53.5614 64.6941 49.391 64.9865 44.3261Z" fill="url(#paint0_linear)"/>
<defs>
<linearGradient id="paint0_linear" x1="56.568" y1="56.4908" x2="23.1348" y2="20.0877" gradientUnits="userSpaceOnUse">
<stop stop-color="#B9775D"/>
<stop offset="0.21833" stop-color="#E89077"/>
<stop offset="0.78066" stop-color="#FDBDA4"/>
<stop offset="1" stop-color="#B57359"/>
</linearGradient>
</defs>
</svg>
