<svg width="80" height="80" viewBox="0 0 80 80" fill="none" xmlns="http://www.w3.org/2000/svg">
<circle cx="40" cy="40" r="40" fill="#C4C4C4"/>
<path d="M40 80C18 80 0 62 0 40C0 18 18 0 40 0C62 0 80 18 80 40C80 62 62 80 40 80Z" fill="#002868"/>
<path d="M60.161 64.0005H19.841C17.729 64.0005 16.001 62.2725 16.001 60.1605V19.8405C16.001 17.7285 17.729 16.0005 19.841 16.0005H60.161C62.273 16.0005 64.001 17.7285 64.001 19.8405V60.1605C64.001 62.2725 62.273 64.0005 60.161 64.0005Z" fill="white"/>
<path d="M25.3676 59.1667C25.2412 59.1667 25.1388 59.0515 25.1388 58.9251V52.4755C25.1388 52.3491 25.0364 52.2339 24.91 52.2339H22.6332C22.5052 52.2339 22.3916 52.1315 22.3916 52.0051V50.7587C22.3916 50.6323 22.5068 50.5171 22.6332 50.5171H29.6412C29.7676 50.5171 29.8828 50.6307 29.8828 50.7587V52.0051C29.8828 52.1315 29.7676 52.2339 29.6412 52.2339H27.3772C27.2508 52.2339 27.1356 52.3475 27.1356 52.4755V58.9251C27.1356 59.0515 27.0332 59.1667 26.9068 59.1667H25.3676Z" fill="#002868"/>
<path d="M36.8743 50.7587C36.8743 50.6323 36.9767 50.5171 37.1031 50.5171H38.6295C38.7559 50.5171 38.8711 50.6307 38.8711 50.7587V55.1603C38.8711 57.7683 37.3959 59.2819 35.0551 59.2819C32.727 59.2819 31.2646 57.7683 31.2646 55.1603V50.7587C31.2646 50.6323 31.367 50.5171 31.4934 50.5171H33.0198C33.1462 50.5171 33.2614 50.6307 33.2614 50.7587V55.2227C33.2614 56.5075 33.9223 57.4227 35.0679 57.4227C36.2135 57.4227 36.8743 56.5075 36.8743 55.2227V50.7587V50.7587Z" fill="#002868"/>
<path d="M45.8823 53.3413C45.6791 53.3413 45.6151 53.2645 45.5383 53.1125C45.2711 52.4885 44.6855 52.0949 43.7959 52.0949C42.9943 52.0949 42.3207 52.3749 42.3207 52.9093C42.3207 53.4949 42.9447 53.7365 44.3175 53.9013C46.4039 54.1429 47.5991 54.7797 47.5991 56.4325C47.5991 58.2901 45.9703 59.2693 43.8855 59.2693C42.0791 59.2693 40.5272 58.3909 40.2856 56.5477C40.26 56.3701 40.3496 56.3061 40.5272 56.3061H41.9271C42.1047 56.3061 42.2071 56.3829 42.2583 56.5221C42.4487 57.1333 43.0983 57.6037 44.0391 57.6037C44.8663 57.6037 45.5911 57.2981 45.5911 56.6501C45.5911 55.8741 44.8279 55.7349 43.3015 55.5429C41.5464 55.3141 40.3256 54.8053 40.3256 53.1893C40.3256 51.5733 41.7127 50.4165 43.8871 50.4165C45.8455 50.4165 47.2071 51.4725 47.4871 53.0501C47.5255 53.2277 47.4743 53.3429 47.2839 53.3429H45.8823V53.3413Z" fill="#002868"/>
<path d="M49.3304 59.1667C49.204 59.1667 49.1016 59.0515 49.1016 58.9251V50.7587C49.1016 50.6323 49.204 50.5171 49.3304 50.5171H52.7896C55.3592 50.5171 57.356 52.2851 57.356 54.8675C57.356 57.4115 55.3848 59.1667 52.7896 59.1667H49.3304ZM52.7896 57.4483C54.1768 57.4483 55.2568 56.3539 55.2568 54.8403C55.2568 53.3267 54.1752 52.2323 52.7768 52.2323H51.34C51.2136 52.2323 51.1112 52.3459 51.1112 52.4739V57.2179C51.1112 57.3443 51.2136 57.4467 51.34 57.4467H52.7896V57.4483Z" fill="#002868"/>
<path d="M62.7216 45.7597H17.2816C16.9296 45.7597 16.6416 45.4717 16.6416 45.1197V19.8396C16.6416 18.0796 18.0816 16.6396 19.8416 16.6396H60.1616C61.9216 16.6396 63.3616 18.0796 63.3616 19.8396V45.1197C63.3616 45.4717 63.0736 45.7597 62.7216 45.7597Z" fill="#002868"/>
<path d="M42.3588 40.5698H38.1988C37.9348 40.5698 37.7188 40.3538 37.7188 40.0898V22.4898C37.7188 22.2258 37.9348 22.0098 38.1988 22.0098H42.3588C42.6228 22.0098 42.8388 22.2258 42.8388 22.4898V40.0898C42.8388 40.3538 42.6228 40.5698 42.3588 40.5698Z" fill="white"/>
<path d="M49.4381 27.1298H30.5581C30.2941 27.1298 30.0781 26.9138 30.0781 26.6498V22.4898C30.0781 22.2258 30.2941 22.0098 30.5581 22.0098H49.4381C49.7021 22.0098 49.9181 22.2258 49.9181 22.4898V26.6498C49.9181 26.9138 49.7021 27.1298 49.4381 27.1298Z" fill="white"/>
</svg>
