<svg width="3194" height="648" viewBox="0 0 3194 648" fill="none" xmlns="http://www.w3.org/2000/svg">
<path d="M864.077 211.918H898.799L995.958 437.453H950.086L929.062 385.847H831.266L810.879 437.453H765.963L864.077 211.918ZM915.045 351.443L880.323 259.7L844.964 351.443H915.045Z" fill="white"/>
<path d="M1039.01 211.918H1085.2L1146.68 382.343L1210.07 211.918H1253.4L1162.29 437.453H1127.57L1039.01 211.918Z" fill="white"/>
<path d="M1396.84 211.918H1431.57L1528.72 437.453H1482.85L1461.83 385.847H1364.03L1343.64 437.453H1298.73L1396.84 211.918ZM1447.81 351.443L1413.09 259.7L1377.73 351.443H1447.81Z" fill="white"/>
<path d="M1617.5 211.918H1657.64V401.138H1753.52V437.453H1617.5V211.918Z" fill="white"/>
<path d="M1919.34 211.918H1954.07L2051.22 437.453H2005.35L1984.33 385.847H1886.53L1866.15 437.453H1821.23L1919.34 211.918ZM1970.31 351.443L1935.59 259.7L1900.23 351.443H1970.31Z" fill="white"/>
<path d="M2140 211.918H2193.2L2302.46 379.476H2303.1V211.918H2343.23V437.453H2292.27L2180.77 264.479H2180.14V437.453H2140V211.918Z" fill="white"/>
<path d="M2612.06 264.797C2603.78 255.878 2595.71 249.931 2587.85 246.958C2580.21 243.985 2572.45 242.499 2564.6 242.499C2552.92 242.499 2542.3 244.622 2532.74 248.87C2523.4 252.905 2515.33 258.639 2508.53 266.071C2501.74 273.292 2496.43 281.787 2492.6 291.556C2488.99 301.325 2487.19 311.837 2487.19 323.092C2487.19 335.197 2488.99 346.347 2492.6 356.54C2496.43 366.734 2501.74 375.547 2508.53 382.98C2515.33 390.413 2523.4 396.253 2532.74 400.5C2542.3 404.748 2552.92 406.872 2564.6 406.872C2573.73 406.872 2582.54 404.748 2591.04 400.5C2599.74 396.041 2607.81 389.033 2615.25 379.476L2648.38 403.049C2638.18 417.065 2625.76 427.259 2611.1 433.63C2596.45 440.001 2580.84 443.186 2564.28 443.186C2546.86 443.186 2530.83 440.426 2516.18 434.904C2501.74 429.17 2489.21 421.206 2478.59 411.013C2468.18 400.607 2460 388.183 2454.06 373.742C2448.11 359.301 2445.14 343.267 2445.14 325.641C2445.14 307.589 2448.11 291.237 2454.06 276.584C2460 261.718 2468.18 249.082 2478.59 238.676C2489.21 228.27 2501.74 220.306 2516.18 214.784C2530.83 209.051 2546.86 206.184 2564.28 206.184C2579.57 206.184 2593.69 208.944 2606.65 214.466C2619.81 219.775 2632.02 228.907 2643.28 241.861L2612.06 264.797Z" fill="white"/>
<path d="M2739.03 211.918H2779.16V301.749H2884.6V211.918H2924.74V437.453H2884.6V338.064H2779.16V437.453H2739.03V211.918Z" fill="white"/>
<path d="M3038.85 211.918H3188.25V248.232H3078.99V303.661H3182.52V339.976H3078.99V401.138H3193.99V437.453H3038.85V211.918Z" fill="white"/>
<path fill-rule="evenodd" clip-rule="evenodd" d="M323.652 647.988C502.316 647.988 647.152 503.152 647.152 324.488C647.152 145.824 502.316 0.988281 323.652 0.988281C144.988 0.988281 0.152344 145.824 0.152344 324.488C0.152344 503.152 144.988 647.988 323.652 647.988ZM225.905 471.048H150.015C132.022 471.048 123.025 471.048 117.637 467.564C111.814 463.798 108.14 457.479 107.751 450.56C107.39 444.157 111.846 436.351 120.758 420.738L120.762 420.732L286.919 129.643C295.962 113.799 300.484 105.877 306.238 102.929C312.453 99.7425 319.824 99.737 326.044 102.914C331.802 105.854 336.335 113.77 345.401 129.6L383.723 196.509L383.724 196.51C390.317 208.021 393.613 213.776 395.063 219.849C396.641 226.459 396.644 233.346 395.072 239.957C393.628 246.031 390.336 251.791 383.752 263.308L284.392 437.127C277.713 448.814 274.373 454.656 269.797 459.024C264.816 463.778 258.776 467.281 252.174 469.245C246.108 471.048 239.374 471.048 225.905 471.048ZM496.658 471.048H408.672C390.516 471.048 381.437 471.048 376.032 467.533C370.192 463.736 366.529 457.369 366.184 450.417C365.864 443.983 370.433 436.143 379.571 420.467L423.491 345.116C432.514 329.638 437.026 321.898 442.737 318.999C448.91 315.866 456.209 315.862 462.387 318.985C468.104 321.875 472.625 329.607 481.668 345.07L481.67 345.075L525.736 420.425C534.909 436.111 539.495 443.955 539.182 450.394C538.843 457.352 535.182 463.726 529.339 467.529C523.934 471.048 514.842 471.048 496.658 471.048Z" fill="white"/>
</svg>
