<svg xmlns="http://www.w3.org/2000/svg" viewBox="0 0 1325.13 142.79"><defs><style>.cls-1,.cls-2{fill:#fff;}.cls-2{fill-rule:evenodd;}</style></defs><g id="Layer_2" data-name="Layer 2"><g id="Layer_1-2" data-name="Layer 1"><path class="cls-1" d="M191.6,46.76h7.82l21.13,49.79H210.42l-4.63-11.29H184.07l-4.63,11.29H169.6Zm11,31-7.81-20.26L187,77.73Z"/><path class="cls-1" d="M230.11,46.76h10.13l13.61,37.63,13.89-37.63h9.56L257,96.55h-7.82Z"/><path class="cls-1" d="M309.14,46.76H317l21.43,49.79H328.25l-4.63-11.29H301.91l-4.64,11.29h-9.84Zm11.3,31-7.82-20.26L304.8,77.73Z"/><path class="cls-1" d="M358.07,46.76h9V88.59h21.13V96.7H358.07Z"/><path class="cls-1" d="M424.66,46.76h7.82L453.9,96.55H443.77l-4.63-11.29H417.42l-4.63,11.29H403Zm11.29,31-7.82-20.26-7.81,20.26Z"/><path class="cls-1" d="M473.59,46.76h11.87l24,37.05h0V46.76h9V96.55H507.17L482.56,58.34h0V96.55h-9Z"/><path class="cls-1" d="M577.81,58.34a16.5,16.5,0,0,0-5.21-4.06,16.78,16.78,0,0,0-5.21-.86,17.34,17.34,0,0,0-6.95,1.44,13.55,13.55,0,0,0-5.21,3.77,21.75,21.75,0,0,0-3.47,5.5,17.68,17.68,0,0,0-1.16,7.09,21.19,21.19,0,0,0,1.16,7.53,15.94,15.94,0,0,0,3.47,5.79,13.18,13.18,0,0,0,5.21,3.76,17.35,17.35,0,0,0,6.95,1.45,13.55,13.55,0,0,0,11-6.08l7.24,5.21a19.71,19.71,0,0,1-8.11,6.66,24.84,24.84,0,0,1-10.42,2,31.48,31.48,0,0,1-10.71-1.74,22.46,22.46,0,0,1-8.4-5.21,27.18,27.18,0,0,1-5.5-8.11,25.07,25.07,0,0,1-2-10.71,25.07,25.07,0,0,1,2-10.71,28.27,28.27,0,0,1,5.5-8.4,22.8,22.8,0,0,1,8.4-5.21,30.89,30.89,0,0,1,10.71-2,24.34,24.34,0,0,1,9.27,1.74,22.75,22.75,0,0,1,8.1,6.08Z"/><path class="cls-1" d="M605.9,46.76h9v20h23.45v-20h9V96.55h-9v-22H614.87v22h-9Z"/><path class="cls-1" d="M672.2,46.76h33v8.1h-24V67H704v8.11H681.17V88.74h25.48v8.1H672.2Z"/><path class="cls-2" d="M142.79,71.37A71.4,71.4,0,1,1,71.37,0h0A71.4,71.4,0,0,1,142.79,71.37Zm-91.6,28.4H37.32a11.25,11.25,0,0,1-5.21-.55,3.48,3.48,0,0,1-1.6-2.9c0-1,.67-2.29,2.09-4.83L66.82,31.35C68.27,28.81,69,27.5,70,27a3.44,3.44,0,0,1,3.18,0c.93.46,1.65,1.77,3.13,4.31l7,12.28h0A22.63,22.63,0,0,1,86,49.25a10.5,10.5,0,0,1,0,4.86,23.13,23.13,0,0,1-2.75,5.79l-18,31.85h0A22.21,22.21,0,0,1,61.81,97a10.58,10.58,0,0,1-4.25,2.49A26.68,26.68,0,0,1,51.19,99.77Zm35,0H106a11.78,11.78,0,0,0,5.27-.55,3.54,3.54,0,0,0,1.59-2.9c0-1-.64-2.23-2-4.6v-.23l-9.94-17v-.17c-1.38-2.37-2.11-3.56-2.89-4a3.44,3.44,0,0,0-3.18,0c-.9.46-1.66,1.7-3.1,4.22l-10.16,17h0c-1.45,2.52-2.18,3.76-2.15,4.77a3.6,3.6,0,0,0,1.62,2.9A11.35,11.35,0,0,0,86.16,99.77Z"/><path class="cls-1" d="M745.08,48.25h6.59L768.85,87.8,786,48.25h6.26V95.39H787.9V53.84h-.14l-18,41.55h-1.93L749.61,53.84h-.14V95.39h-4.39Z"/><path class="cls-1" d="M861.21,77.34a29.73,29.73,0,0,1-.87,7.27,16.56,16.56,0,0,1-2.89,6.12A14.48,14.48,0,0,1,852.12,95a21.25,21.25,0,0,1-16.18,0,14.48,14.48,0,0,1-5.33-4.26,16.56,16.56,0,0,1-2.89-6.12,29.73,29.73,0,0,1-.87-7.27V48.25h4.4v28a33.75,33.75,0,0,0,.46,5.4,16.22,16.22,0,0,0,1.83,5.32A11.29,11.29,0,0,0,837.4,91a14.52,14.52,0,0,0,13.25,0,11.24,11.24,0,0,0,3.87-4.07,16.22,16.22,0,0,0,1.83-5.32,33.81,33.81,0,0,0,.47-5.4v-28h4.39Z"/><path class="cls-1" d="M896.23,48.25h4.4V91.4h22v4H896.23Z"/><path class="cls-1" d="M956.83,52.24H940.72v-4h36.62v4H961.22V95.39h-4.39Z"/><path class="cls-1" d="M1007.57,48.25H1012V95.39h-4.39Z"/><path class="cls-1" d="M1041.2,48.25h4.72l15.19,41.35,15.31-41.35h4.66l-17.91,47.14h-4.4Z"/><path class="cls-1" d="M1110.31,48.25h28.84v4h-24.44V69h22.9v4h-22.9V91.4h25.5v4h-29.9Z"/><path class="cls-1" d="M1172.77,48.25h12.39c.62,0,1.46,0,2.53.06a25.66,25.66,0,0,1,3.46.41,21.07,21.07,0,0,1,3.8,1.06,10.76,10.76,0,0,1,3.46,2.13,11.13,11.13,0,0,1,2.53,3.53,12.12,12.12,0,0,1,1,5.2,11.85,11.85,0,0,1-1.17,5.59,10.76,10.76,0,0,1-2.93,3.56,12.16,12.16,0,0,1-3.89,2,23.94,23.94,0,0,1-4.06.93l13.71,22.64h-5L1185.36,73h-8.19V95.39h-4.4Zm4.4,20.77h9.32a15.57,15.57,0,0,0,5.63-.86,9.44,9.44,0,0,0,3.36-2.13,6.83,6.83,0,0,0,1.63-2.73,9.46,9.46,0,0,0,.43-2.66,9.36,9.36,0,0,0-.43-2.67,6.7,6.7,0,0,0-1.63-2.73,9.44,9.44,0,0,0-3.36-2.13,15.34,15.34,0,0,0-5.63-.87h-9.32Z"/><path class="cls-1" d="M1236.5,86.67a11.25,11.25,0,0,0,4.49,4.46,13.18,13.18,0,0,0,6.29,1.47,12.68,12.68,0,0,0,4.13-.67,10.68,10.68,0,0,0,3.37-1.86,9,9,0,0,0,2.26-2.9,8.65,8.65,0,0,0,.83-3.83,7.33,7.33,0,0,0-1-4.06,8.39,8.39,0,0,0-2.76-2.63,20.57,20.57,0,0,0-3.9-1.77c-1.44-.49-2.93-1-4.46-1.46s-3-1-4.46-1.67a15,15,0,0,1-3.9-2.43,10.81,10.81,0,0,1-2.76-3.76,13.42,13.42,0,0,1-1-5.59,12.13,12.13,0,0,1,1.23-5.56,12,12,0,0,1,3.33-4.07,15.09,15.09,0,0,1,4.83-2.46,19.68,19.68,0,0,1,5.72-.83,18.53,18.53,0,0,1,7.16,1.37,13.58,13.58,0,0,1,5.69,4.55l-3.79,2.73a11.18,11.18,0,0,0-3.9-3.49,11.34,11.34,0,0,0-5.29-1.16,14.27,14.27,0,0,0-4.06.56,10.16,10.16,0,0,0-3.36,1.66,8.27,8.27,0,0,0-2.3,2.77A8.38,8.38,0,0,0,1238,60a7.6,7.6,0,0,0,1.8,5.43,12.76,12.76,0,0,0,4.49,3,47.53,47.53,0,0,0,5.87,1.93,28.47,28.47,0,0,1,5.86,2.24,12.52,12.52,0,0,1,4.49,3.89,11.58,11.58,0,0,1,1.8,6.89,12.76,12.76,0,0,1-1.2,5.66,12.51,12.51,0,0,1-3.23,4.16,14.11,14.11,0,0,1-4.7,2.57,17.9,17.9,0,0,1-5.52.86A22.32,22.32,0,0,1,1239,95a15.8,15.8,0,0,1-6.73-5.49Z"/><path class="cls-1" d="M1295.23,48.25h28.83v4h-24.44V69h22.91v4h-22.91V91.4h25.51v4h-29.9Z"/></g></g></svg>